<svg width="79" height="79" fill="none" xmlns="http://www.w3.org/2000/svg"><circle cx="39.5" cy="39.5" r="39.5" fill="#CF3535"/><g clip-path="url(#clip0)" fill="#fff"><path d="M51.159 37.503v-1.265a.63.63 0 10-1.26 0v8.463c-.443.053-.904.102-1.383.15a.63.63 0 00-.569.627v4.241a.63.63 0 00.692.627 69.78 69.78 0 001.26-.135v3.457H29.1v-3.455c2.959.343 6.293.535 9.77.556v1.323a.63.63 0 001 .51l5.599-4.073a.63.63 0 000-1.018l-5.6-4.073a.63.63 0 00-1 .51v1.32c-3.487-.022-6.825-.217-9.769-.565v-8.466a.63.63 0 10-1.26 0v1.266c-4.615.624-9.84 1.841-9.84 4.154V45.9c0 1.529 2.164 2.712 6.617 3.617a50.32 50.32 0 003.224.538v6.62A2.33 2.33 0 0030.168 59h18.664a2.33 2.33 0 002.327-2.327v-6.62c2.434-.33 4.521-.762 6.122-1.27C59.784 47.987 61 47.044 61 45.898v-4.242c0-2.313-5.225-3.53-9.841-4.154zm-26.291 6.536a33.897 33.897 0 01-1.18-.26 43.382 43.382 0 014.153-.762v1.524a48.614 48.614 0 01-2.973-.502zm-3.32-3.879c1.535-.55 3.7-1.026 6.293-1.385v2.97c-2.588.35-4.789.82-6.412 1.366-1.65-.608-2.17-1.168-2.17-1.454 0-.07.065-.7 2.288-1.497zM19.26 45.9v-2.424c1.08.695 2.858 1.29 5.357 1.799 3.982.81 9.268 1.255 14.883 1.255a.63.63 0 00.63-.63v-.714l3.898 2.835-3.898 2.835v-.714a.63.63 0 00-.63-.63c-5.534 0-10.73-.437-14.632-1.23-4.436-.901-5.608-1.952-5.608-2.382zm30.639 10.774c0 .589-.479 1.067-1.067 1.067H30.168a1.068 1.068 0 01-1.067-1.067v-1.745h20.798v1.745zm1.26-13.656a43.4 43.4 0 014.146.76 42.161 42.161 0 01-4.146.763v-1.523zM59.74 45.9c0 .663-2.594 2.267-10.532 3.122v-2.975c3.276-.347 6.059-.865 8.074-1.505 1.04-.33 1.858-.686 2.458-1.072v2.43zm-2.182-2.792c-1.622-.544-3.818-1.012-6.4-1.362v-2.97c2.593.36 4.76.835 6.295 1.385 2.223.797 2.287 1.428 2.287 1.497 0 .324-.62.873-2.182 1.45zm-29.087-9.215a.63.63 0 00.63-.63V21.332h4.345c.059 0 .114.023.155.064l.69.69c.28.28.651.434 1.046.434h8.29a1.47 1.47 0 001.045-.433l.691-.69a.22.22 0 01.154-.065H49.9v11.933a.63.63 0 001.26 0V18.327A2.33 2.33 0 0048.832 16H30.168a2.33 2.33 0 00-2.327 2.327v14.936c0 .348.282.63.63.63zm.63-15.566c0-.589.479-1.067 1.067-1.067h18.664c.589 0 1.067.478 1.067 1.067v1.745h-4.382a1.47 1.47 0 00-1.045.433l-.69.69a.217.217 0 01-.155.065h-8.29a.217.217 0 01-.155-.064l-.69-.69c-.28-.28-.65-.434-1.046-.434h-4.345v-1.745z"/><path d="M37.124 19.939a.848.848 0 100-1.697.848.848 0 000 1.697zm2.206-.219h3.394a.63.63 0 100-1.26H39.33a.63.63 0 100 1.26zm14.023 6.227a.627.627 0 00.864-.217l.663-1.106c.569 2.445.596 5.746-.55 8.584a.636.636 0 00.306.8c.325.16.728.006.863-.329 1.299-3.218 1.203-6.707.632-9.232l.946.567a.63.63 0 00.647-1.081l-2.328-1.396a.63.63 0 00-.864.217l-1.396 2.328a.63.63 0 00.217.864zm-31.738 6.641l2.328 1.396a.634.634 0 00.864-.217l1.396-2.329a.63.63 0 10-1.08-.647l-.664 1.106c-.568-2.445-.596-5.746.55-8.584a.63.63 0 00-1.169-.471c-1.299 3.218-1.202 6.707-.632 9.232l-.946-.566a.63.63 0 00-.647 1.08zM39.5 31.356a2.33 2.33 0 00-2.327 2.326A2.33 2.33 0 0039.5 36.01a2.33 2.33 0 002.327-2.327 2.33 2.33 0 00-2.327-2.326zm0 3.393a1.068 1.068 0 010-2.134 1.068 1.068 0 010 2.134z"/><path d="M47.139 31.231l-1.697-2.939a.63.63 0 00-.86-.23l-1.72.993a5.674 5.674 0 00-1.035-.599v-2.07a.63.63 0 00-.63-.63h-3.394a.63.63 0 00-.63.63v2.07c-.364.163-.71.363-1.034.599l-1.794-1.036a.63.63 0 00-.86.23l-1.697 2.94a.63.63 0 00.23.86l1.794 1.036a5.698 5.698 0 000 1.195l-1.794 1.035a.63.63 0 00-.23.86l1.696 2.94a.63.63 0 00.86.23l1.795-1.035c.323.236.67.436 1.034.598v1.986c0 .347.282.63.63.63h3.394a.63.63 0 00.63-.63v-1.986c.364-.162.71-.362 1.034-.598l1.72.993a.63.63 0 00.861-.23l1.697-2.94a.63.63 0 00-.23-.86l-1.72-.993a5.698 5.698 0 000-1.195l1.72-.993a.63.63 0 00.23-.86zm-2.95.976a.63.63 0 00-.304.66 4.51 4.51 0 010 1.63.63.63 0 00.304.66l1.544.892-1.067 1.848-1.544-.892a.63.63 0 00-.725.067c-.42.359-.894.633-1.41.816a.63.63 0 00-.42.594v1.782h-2.134v-1.782a.63.63 0 00-.42-.594 4.435 4.435 0 01-1.41-.816.63.63 0 00-.725-.067l-1.618.934-1.067-1.847 1.618-.934a.63.63 0 00.304-.66 4.51 4.51 0 010-1.631.63.63 0 00-.304-.66l-1.618-.934 1.067-1.848 1.618.935a.63.63 0 00.725-.067c.42-.36.894-.634 1.41-.816a.63.63 0 00.42-.594v-1.867h2.134v1.867a.63.63 0 00.42.594c.516.183.99.457 1.41.816a.63.63 0 00.724.067l1.545-.892 1.067 1.848-1.544.891z"/></g><defs><clipPath id="clip0"><path fill="#fff" transform="translate(18 16)" d="M0 0h43v43H0z"/></clipPath></defs></svg>