<svg width="79" height="79" fill="none" xmlns="http://www.w3.org/2000/svg"><circle cx="39.5" cy="39.5" r="39.5" fill="#CF3535"/><path d="M30.766 32.5a.532.532 0 00.53-.531v-4.25a1.595 1.595 0 011.595-1.594h2.922a.532.532 0 000-1.063H32.89a2.66 2.66 0 00-2.657 2.657v4.25a.531.531 0 00.532.531zm10.817 15.938a.531.531 0 00-.531-.532h-7.63v-1.05a.531.531 0 00-1.063 0v1.581a.53.53 0 00.532.532h8.16a.53.53 0 00.532-.532z" fill="#fff"/><path d="M51.898 40.662l-3.601-3.6v-9.343a2.66 2.66 0 00-2.656-2.657h-7.172a.531.531 0 000 1.063h7.172a1.596 1.596 0 011.593 1.594v14.875a.531.531 0 101.063 0v-4.03l2.85 2.85a4.75 4.75 0 011.4 3.38v11.081H41.922v-4.178a2.732 2.732 0 012.729-2.728.532.532 0 00.375-.907l-4.47-4.47a1.86 1.86 0 112.63-2.63l6.061 6.062a.531.531 0 00.751-.751l-3.826-3.827V27.719a.531.531 0 00-.531-.532h-2.657a.532.532 0 00-.53.532.532.532 0 01-.532.531h-5.313a.532.532 0 01-.53-.531.531.531 0 00-.532-.532H32.89a.531.531 0 00-.532.532v5.312h-6.375a1.596 1.596 0 00-1.593 1.594v9.563a1.596 1.596 0 001.593 1.593h4.25v4.782a2.659 2.659 0 002.657 2.656h7.968v3.187a.531.531 0 00.532.532h11.687a.532.532 0 00.531-.532V44.794a5.805 5.805 0 00-1.711-4.132zm-25.914-6.568h17v1.062h-17.53v-.531a.532.532 0 01.53-.531zm13.282 18.062H32.89a1.595 1.595 0 01-1.594-1.593V45.78h7.991a.532.532 0 100-1.062H25.984a.532.532 0 01-.53-.532v-4.78h14.365a.531.531 0 100-1.063H25.453v-2.125h17.531v2.656a.531.531 0 101.063 0v-6.906a.531.531 0 00-1.063 0v1.062h-9.562v-4.78h1.685a1.597 1.597 0 001.502 1.063h5.313a1.597 1.597 0 001.503-1.063h1.684v13.133l-1.172-1.172a2.922 2.922 0 10-4.132 4.132l3.73 3.73a3.799 3.799 0 00-2.676 3.624v.46h-1.593z" fill="#fff"/><path d="M29.703 40.469h-2.656a.532.532 0 00-.531.531v2.125a.532.532 0 00.53.531h2.657a.532.532 0 00.531-.531V41a.532.532 0 00-.53-.531zm-.531 2.125h-1.594V41.53h1.594v1.063zm11.688 7.969a1.594 1.594 0 10-3.188 0 1.594 1.594 0 003.187 0zm-1.594.53a.531.531 0 110-1.061.531.531 0 010 1.062z" fill="#fff"/></svg>