<svg width="39" height="39" fill="none" xmlns="http://www.w3.org/2000/svg"><path d="M37.86 14.903h-8.813a13 13 0 00.004-.342c0-8.01-6.516-14.526-14.525-14.526C6.516.035 0 6.551 0 14.561c0 2.25.527 4.485 1.527 6.488L.485 27.125a1.14 1.14 0 001.43 1.291l5.096-1.423a14.45 14.45 0 003.04 1.389v4.362c0 .63.51 1.14 1.14 1.14H26.89l2.604 4.51a1.14 1.14 0 001.974 0l2.604-4.51h3.789c.63 0 1.14-.51 1.14-1.14V16.043c0-.63-.51-1.14-1.14-1.14zM7.19 24.619c-.102 0-.205.014-.306.042l-3.849 1.074.803-4.677a1.14 1.14 0 00-.118-.73 12.264 12.264 0 01-1.44-5.767c0-6.752 5.493-12.246 12.245-12.246 6.752 0 12.245 5.494 12.245 12.246 0 6.752-5.493 12.245-12.245 12.245-2.395 0-4.715-.691-6.71-2a1.14 1.14 0 00-.625-.187zm29.529 6.985h-3.307a1.14 1.14 0 00-.988.57l-1.945 3.37-1.945-3.37a1.14 1.14 0 00-.987-.57H12.332V28.92c.722.11 1.454.168 2.194.168 7.114 0 13.05-5.142 14.288-11.904h7.906v14.421z" fill="#fff"/><path d="M7.945 13.221h13.162a1.14 1.14 0 000-2.28H7.944a1.14 1.14 0 000 2.28zm14.302 3.822c0-.63-.51-1.14-1.14-1.14H7.944a1.14 1.14 0 000 2.28h13.162c.63 0 1.14-.51 1.14-1.14z" fill="#fff"/></svg>